<?xml version="1.0" ?><!DOCTYPE svg  PUBLIC '-//W3C//DTD SVG 1.1//EN'  'http://www.w3.org/Graphics/SVG/1.1/DTD/svg11.dtd'><svg height="10.281mm" style="shape-rendering:geometricPrecision; text-rendering:geometricPrecision; image-rendering:optimizeQuality; fill-rule:evenodd; clip-rule:evenodd" version="1.1" viewBox="0 0 1199 1028" width="11.9944mm" xml:space="preserve" xmlns="http://www.w3.org/2000/svg" xmlns:xlink="http://www.w3.org/1999/xlink"><defs><style type="text/css">
   <![CDATA[
    .fil1 {fill:black}
    .fil0 {fill:#336699}
    .fil4 {fill:red}
    .fil3 {fill:#FF9966}
    .fil2 {fill:white}
   ]]>
  </style></defs><g id="Layer_x0020_1"><g id="_808499568"><polygon class="fil0" points="1072,41 122,41 122,82 82,82 82,122 44,122 44,906 82,906 82,947 122,947 122,987 1072,987 1072,947 1123,947 1123,906 1156,906 1156,122 1123,122 1123,82 1072,82 "/><polygon class="fil1" points="267,98 373,98 373,171 464,171 464,98 689,98 689,171 781,171 781,98 878,98 906,98 973,98 973,170 1029,170 1029,363 973,363 973,418 905,418 905,630 1039,630 1039,685 1115,685 1115,761 1156,761 1156,906 1123,906 1123,947 1072,947 1072,987 122,987 122,947 82,947 82,906 76,906 76,763 149,763 149,629 205,629 205,174 267,174 "/><polygon class="fil2" points="205,363 130,363 130,420 71,420 71,494 130,494 130,553 205,553 "/><rect class="fil3" height="124.782" width="56.6199" x="205" y="553"/><rect class="fil3" height="69.1409" width="396.282" x="454" y="884"/><polygon class="fil3" points="454,953 395,953 395,987 454,987 "/><polygon class="fil2" points="149,763 204,763 260,763 260,819 204,819 204,877 149,877 149,819 "/><path class="fil2" d="M1156 818l-39 0c0,0 -2,-57 -2,-57l-76 0 0 -76 -56 0 0 264 -74 0 0 38 163 0 0 -40 51 0 0 -41 33 0 0 -88z"/><polygon class="fil2" points="271,891 336,891 336,987 271,987 "/><rect class="fil1" height="70.2144" width="144.229" x="761" y="423"/><rect class="fil3" height="249.793" width="49.4094" x="712" y="405"/><rect class="fil3" height="68.6279" width="98.8758" x="355" y="561"/><rect class="fil3" height="57.2184" width="59.8119" x="444" y="761"/><rect class="fil3" height="86.2029" width="152.209" x="379" y="678"/><rect class="fil2" height="61.5694" width="133.693" x="118" y="230"/><rect class="fil3" height="61.5694" width="133.693" x="251" y="230"/><rect class="fil3" height="193" width="190" x="647" y="230"/><path class="fil2" d="M897 291l-318 0 0 72 318 0 0 -72zm-456 0l-236 0 0 72 236 0 0 -72z"/><rect class="fil3" height="54.9859" width="114.342" x="327" y="363"/><rect class="fil3" height="456.066" width="52.7724" x="327" y="363"/><rect class="fil3" height="49.2954" width="700.196" x="205" y="629"/><rect class="fil3" height="255.008" width="55.0619" x="850" y="629"/><rect class="fil3" height="190" width="143" x="707" y="629"/><rect class="fil3" height="330.619" width="61.2084" x="454" y="553"/><rect class="fil3" height="147.668" width="74.2423" x="380" y="736"/><rect class="fil3" height="96.7479" width="191.738" x="515" y="668"/><rect class="fil1" height="53.5419" width="61.2084" x="454" y="764"/><rect class="fil3" height="102.03" width="64.5524" x="647" y="550"/><rect class="fil2" height="136.03" width="66.4429" x="839" y="493"/><polygon class="fil2" points="576,493 515,493 454,493 454,553 515,553 515,629 576,629 576,553 "/><path class="fil4" d="M1115 0l-1031 0 0 41 -40 0 0 41 -44 0 0 40 0 784 0 41 44 0 0 40 40 0 0 41 1031 0 0 -41 41 0 0 -40 43 0 0 -41 0 -784 0 -40 -43 0 0 -41 -41 0 0 -41zm-1071 122l38 0 0 -40 40 0 0 -41 950 0 0 41 51 0 0 40 33 0 0 784 -33 0 0 41 -51 0 0 40 -950 0 0 -40 -40 0 0 -41 -38 0 0 -784z"/></g></g></svg>